<svg width="139" height="60" viewBox="0 0 139 60" fill="none" xmlns="http://www.w3.org/2000/svg">
<path d="M53.0093 0.244583H55.6058V14.9397H60.2347V17.3896H53.0093V0.244583Z" fill="#4F4F4F"/>
<path d="M67.7548 13.4958V4.14027C67.7548 3.06079 67.1439 2.44776 66.1866 2.44776C65.2315 2.44776 64.6207 3.06079 64.6207 4.14027V13.4958C64.6207 14.573 65.2315 15.1861 66.1866 15.1861C67.1439 15.1861 67.7548 14.573 67.7548 13.4958ZM62.022 13.4958V4.14027C62.022 1.66591 63.6878 4.76837e-05 66.1866 4.76837e-05C68.6854 4.76837e-05 70.3513 1.66591 70.3513 4.14027V13.4958C70.3513 15.9701 68.6854 17.636 66.1866 17.636C63.6878 17.636 62.022 15.9701 62.022 13.4958Z" fill="#4F4F4F"/>
<path d="M72.7524 13.5698V4.06549C72.7524 1.66665 74.3939 0.000789642 76.8194 0.000789642C79.2426 0.000789642 80.8841 1.66665 80.8841 4.06549V6.07341H78.3364V4.06549C78.3364 3.06153 77.7256 2.4485 76.8416 2.4485C75.9598 2.4485 75.349 3.06153 75.349 4.06549V13.5698C75.349 14.5738 75.9598 15.1868 76.8416 15.1868C77.7256 15.1868 78.3364 14.5738 78.3364 13.5698V11.1199H80.8841V13.5698C80.8841 15.9709 79.2426 17.6367 76.8194 17.6367C74.3939 17.6367 72.7524 15.9709 72.7524 13.5698Z" fill="#4F4F4F"/>
<path d="M88.0356 11.0956L86.9828 3.9191L85.93 11.0956H88.0356ZM88.3777 13.5944H85.5857L85.0238 17.3904H82.4272L85.2681 0.245316H88.7464L91.5872 17.3904H88.9419L88.3777 13.5944Z" fill="#4F4F4F"/>
<path d="M93.5972 0.244583H96.1915V14.9397H100.82V17.3896H93.5972V0.244583Z" fill="#4F4F4F"/>
<path d="M60.1616 23.6325L55.2618 36.1243H60.1616V38.5742H52.3721V36.3686L57.2719 23.8769H52.3721V21.4292H60.1616V23.6325Z" fill="#4F4F4F"/>
<path d="M67.8773 34.6791V25.3214C67.8773 24.2442 67.2665 23.6311 66.3092 23.6311C65.3541 23.6311 64.7411 24.2442 64.7411 25.3214V34.6791C64.7411 35.7564 65.3541 36.3694 66.3092 36.3694C67.2665 36.3694 67.8773 35.7564 67.8773 34.6791ZM62.1445 34.6791V25.3214C62.1445 22.8471 63.8104 21.1812 66.3092 21.1812C68.808 21.1812 70.4739 22.8471 70.4739 25.3214V34.6791C70.4739 37.1513 68.808 38.8171 66.3092 38.8171C63.8104 38.8171 62.1445 37.1513 62.1445 34.6791Z" fill="#4F4F4F"/>
<path d="M73.0947 21.4282H75.96L79.2673 32.9404V21.4282H81.8127V38.5732H79.0696L75.6402 27.6008V38.5732H73.0947V21.4282Z" fill="#4F4F4F"/>
<path d="M84.6553 21.4282H92.0273V23.8781H87.2518V28.6536H91.0478V31.1013H87.2518V36.1233H92.0273V38.5732H84.6553V21.4282Z" fill="#4F4F4F"/>
<path d="M52.4224 55.7877V55.1769L54.9212 54.9059V55.5434C54.9212 56.7917 55.5564 57.5513 56.587 57.5513C57.6132 57.5513 58.2506 56.9138 58.2506 55.9099C58.2506 54.8326 57.8109 54.0486 55.8762 52.2117C53.3019 49.7862 52.5667 48.4646 52.5667 46.5788C52.5667 44.0312 54.0394 42.3653 56.5115 42.3653C58.9858 42.3653 60.4562 44.0312 60.4562 46.6033V47.0431L57.9575 47.314V46.8232C57.9575 45.5016 57.4422 44.8152 56.5381 44.8152C55.6297 44.8152 55.1166 45.3772 55.1166 46.4544C55.1166 47.5339 55.6541 48.318 57.491 50.1549C59.9898 52.6515 60.7983 53.902 60.7983 55.7877C60.7983 58.2377 59.0836 59.999 56.6092 59.999C54.1349 59.999 52.4224 58.2377 52.4224 55.7877Z" fill="#4F4F4F"/>
<path d="M68.514 55.861V46.5055C68.514 45.4261 67.9032 44.813 66.9459 44.813C65.9908 44.813 65.3778 45.4261 65.3778 46.5055V55.861C65.3778 56.9383 65.9908 57.5513 66.9459 57.5513C67.9032 57.5513 68.514 56.9383 68.514 55.861ZM62.7812 55.861V46.5055C62.7812 44.0312 64.4471 42.3653 66.9459 42.3653C69.4447 42.3653 71.1105 44.0312 71.1105 46.5055V55.861C71.1105 58.3354 69.4447 59.999 66.9459 59.999C64.4471 59.999 62.7812 58.3354 62.7812 55.861Z" fill="#4F4F4F"/>
<path d="M73.7314 42.6108H76.328V57.3059H80.9569V59.7559H73.7314V42.6108Z" fill="#4F4F4F"/>
<path d="M82.8682 55.9842V42.6106H85.4647V55.9842C85.4647 56.9881 86.0777 57.5523 86.9107 57.5523C87.7414 57.5523 88.3544 56.9881 88.3544 55.9842V42.6106H90.9021V55.9842C90.9021 58.3852 89.2851 60 86.9107 60C84.534 60 82.8682 58.3852 82.8682 55.9842Z" fill="#4F4F4F"/>
<path d="M92.812 42.6108H101.092V45.0607H98.2494V59.7559H95.6551V45.0607H92.812V42.6108Z" fill="#4F4F4F"/>
<path d="M103.1 42.61H105.697V59.7551H103.1V42.61Z" fill="#4F4F4F"/>
<path d="M114.049 55.861V46.5055C114.049 45.4261 113.436 44.813 112.481 44.813C111.525 44.813 110.912 45.4261 110.912 46.5055V55.861C110.912 56.9383 111.525 57.5513 112.481 57.5513C113.436 57.5513 114.049 56.9383 114.049 55.861ZM108.316 55.861V46.5055C108.316 44.0312 109.982 42.3653 112.481 42.3653C114.979 42.3653 116.645 44.0312 116.645 46.5055V55.861C116.645 58.3354 114.979 59.999 112.481 59.999C109.982 59.999 108.316 58.3354 108.316 55.861Z" fill="#4F4F4F"/>
<path d="M119.265 42.6108H122.133L125.438 54.123V42.6108H127.985V59.7559H125.242L121.813 48.7834V59.7559H119.265V42.6108Z" fill="#4F4F4F"/>
<path d="M130.239 55.7877V55.1769L132.738 54.9059V55.5434C132.738 56.7917 133.375 57.5513 134.403 57.5513C135.432 57.5513 136.069 56.9138 136.069 55.9099C136.069 54.8326 135.627 54.0486 133.693 52.2117C131.121 49.7862 130.385 48.4646 130.385 46.5788C130.385 44.0312 131.856 42.3653 134.33 42.3653C136.802 42.3653 138.273 44.0312 138.273 46.6033V47.0431L135.774 47.314V46.8232C135.774 45.5016 135.261 44.8152 134.355 44.8152C133.448 44.8152 132.933 45.3772 132.933 46.4544C132.933 47.5339 133.473 48.318 135.31 50.1549C137.806 52.6515 138.615 53.902 138.615 55.7877C138.615 58.2377 136.902 59.999 134.428 59.999C131.953 59.999 130.239 58.2377 130.239 55.7877Z" fill="#4F4F4F"/>
<path d="M7.62521 53.0477H0C0 56.7526 3.41391 59.7556 7.62521 59.7556H38.1061L30.7363 53.0477H7.62521Z" fill="#FBC52B"/>
<path d="M38.1063 0.24525H7.62549V6.95312H45.7316C45.7316 3.24825 42.3177 0.24525 38.1063 0.24525Z" fill="#E74234"/>
<path d="M38.1064 6.95169V59.7551C42.3177 59.7551 45.7317 56.7521 45.7317 53.0472V6.95169H38.1064Z" fill="#94193D"/>
<path d="M0.000976562 53.0479H7.62619V0.244419C3.41489 0.244419 0.000976562 3.24742 0.000976562 6.9523V53.0479Z" fill="#F08E2A"/>
<path d="M16.7669 30C16.7669 31.1927 15.7985 32.1611 14.6057 32.1611C13.413 32.1611 12.4468 31.1927 12.4468 30C12.4468 28.805 13.413 27.8388 14.6057 27.8388C15.7985 27.8388 16.7669 28.805 16.7669 30Z" fill="#4F4F4F"/>
<path d="M25.0269 30C25.0269 31.1927 24.0585 32.1611 22.8658 32.1611C21.673 32.1611 20.7046 31.1927 20.7046 30C20.7046 28.805 21.673 27.8388 22.8658 27.8388C24.0585 27.8388 25.0269 28.805 25.0269 30Z" fill="#4F4F4F"/>
<path d="M33.2867 30C33.2867 31.1927 32.3183 32.1611 31.1255 32.1611C29.9328 32.1611 28.9644 31.1927 28.9644 30C28.9644 28.805 29.9328 27.8388 31.1255 27.8388C32.3183 27.8388 33.2867 28.805 33.2867 30Z" fill="#4F4F4F"/>
</svg>
